<svg width="128" height="128" viewBox="0 0 128 128" fill="none" xmlns="http://www.w3.org/2000/svg">
<rect width="128" height="128" fill="#3EF2D0"/>
<g clip-path="url(#clip0_1697_16283)">
<path d="M100.333 32V49.1818H94.6667V32H89V49.1818H83.3333V32H77.6667V49.1818H49.3333V32H43.6667V49.1818V54.9091H100.333V60.6364H94.6667H89H38V32H32.3333V60.6364H26.6667V32H21V60.6364V66.3636V95H26.6667V77.8182H32.3333V95H38V77.8182H43.6667V95H49.3333V77.8182H77.6667V95H83.3333V77.8182V72.0909H38H32.3333H26.6667V66.3636H32.3333H38H89V95H94.6667V66.3636H100.333V95H106V66.3636V60.6364V54.9091V49.1818V32H100.333Z" fill="#222223"/>
</g>
<defs>
<clipPath id="clip0_1697_16283">
<rect width="85" height="63" fill="white" transform="translate(21 32)"/>
</clipPath>
</defs>
</svg>